<svg xmlns="http://www.w3.org/2000/svg" xmlns:xlink="http://www.w3.org/1999/xlink" width="150" zoomAndPan="magnify" viewBox="0 0 112.5 44.999999" height="60" preserveAspectRatio="xMidYMid meet" version="1.0"><defs><g/><clipPath id="cce6fbbb22"><path d="M 3.257812 20 L 16 20 L 16 30.753906 L 3.257812 30.753906 Z M 3.257812 20 " clip-rule="nonzero"/></clipPath><clipPath id="d99f46e525"><path d="M 15 14.621094 L 27.460938 14.621094 L 27.460938 26 L 15 26 Z M 15 14.621094 " clip-rule="nonzero"/></clipPath></defs><g clip-path="url(#cce6fbbb22)"><path fill="#0652e9" d="M 11.410156 27.664062 L 11.410156 29.121094 L 4.738281 26.050781 L 4.738281 24.867188 L 11.410156 21.796875 L 11.410156 23.253906 L 6.363281 25.445312 L 6.363281 25.472656 Z M 15.371094 20.171875 L 4.214844 20.171875 C 3.6875 20.171875 3.261719 20.597656 3.261719 21.117188 L 3.261719 29.800781 C 3.261719 30.320312 3.6875 30.746094 4.214844 30.746094 L 12.273438 30.746094 L 15.371094 20.171875 " fill-opacity="1" fill-rule="nonzero"/></g><g clip-path="url(#d99f46e525)"><path fill="#62e1e9" d="M 25.984375 20.550781 L 19.3125 23.578125 L 19.3125 22.117188 L 24.46875 19.929688 L 24.46875 19.902344 L 19.3125 17.710938 L 19.3125 16.253906 L 25.984375 19.28125 Z M 18.46875 14.628906 L 15.371094 25.199219 L 26.507812 25.199219 C 27.035156 25.199219 27.460938 24.777344 27.460938 24.257812 L 27.460938 15.574219 C 27.460938 15.054688 27.035156 14.628906 26.507812 14.628906 L 18.46875 14.628906 " fill-opacity="1" fill-rule="nonzero"/></g><g fill="#ffffff" fill-opacity="1"><g transform="translate(29.262855, 25.499781)"><g><path d="M 2.769531 -1.695312 L 2.769531 -8.699219 L 0.855469 -8.699219 L 0.855469 0 L 5.65625 0 L 5.65625 -1.695312 Z M 2.769531 -1.695312 "/></g></g></g><g fill="#ffffff" fill-opacity="1"><g transform="translate(35.457769, 25.499781)"><g><path d="M 4.421875 0.117188 C 6.480469 0.117188 8.046875 -1.144531 8.046875 -2.785156 L 8.046875 -8.699219 L 6.132812 -8.699219 L 6.132812 -3.148438 C 6.132812 -2.261719 5.394531 -1.582031 4.421875 -1.582031 C 3.464844 -1.582031 2.726562 -2.261719 2.726562 -3.148438 L 2.726562 -8.699219 L 0.8125 -8.699219 L 0.8125 -2.785156 C 0.8125 -1.144531 2.394531 0.117188 4.421875 0.117188 Z M 4.421875 0.117188 "/></g></g></g><g fill="#ffffff" fill-opacity="1"><g transform="translate(44.828463, 25.499781)"><g><path d="M 0.929688 0 L 2.84375 0 L 2.84375 -8.699219 L 0.929688 -8.699219 Z M 0.929688 0 "/></g></g></g><g fill="#ffffff" fill-opacity="1"><g transform="translate(49.094718, 25.499781)"><g><path d="M 3.539062 0.117188 C 5.164062 0.117188 6.539062 -0.839844 6.539062 -2.464844 C 6.539062 -5.683594 2.539062 -4.886719 2.539062 -6.394531 C 2.539062 -6.886719 2.914062 -7.121094 3.378906 -7.121094 C 3.871094 -7.121094 4.363281 -6.84375 4.800781 -6.367188 L 6.074219 -7.585938 C 5.4375 -8.324219 4.464844 -8.816406 3.394531 -8.816406 C 2.015625 -8.816406 0.609375 -7.988281 0.609375 -6.25 C 0.609375 -3.292969 4.625 -4.003906 4.625 -2.480469 C 4.625 -2 4.21875 -1.683594 3.554688 -1.683594 C 2.753906 -1.683594 2.132812 -2.132812 1.8125 -2.8125 L 0.230469 -1.828125 C 0.796875 -0.738281 2.015625 0.117188 3.539062 0.117188 Z M 3.539062 0.117188 "/></g></g></g><g fill="#ffffff" fill-opacity="1"><g transform="translate(56.478735, 25.499781)"><g><path d="M 4.554688 -8.699219 L 0.855469 -8.699219 L 0.855469 0 L 2.769531 0 L 2.769531 -3.523438 L 4.554688 -3.523438 C 6.019531 -3.523438 7.148438 -4.613281 7.148438 -6.074219 C 7.148438 -7.527344 6.019531 -8.699219 4.554688 -8.699219 Z M 4.25 -5.105469 L 2.769531 -5.105469 L 2.769531 -7.019531 L 4.25 -7.019531 C 4.859375 -7.019531 5.320312 -6.628906 5.320312 -6.0625 C 5.320312 -5.480469 4.859375 -5.105469 4.25 -5.105469 Z M 4.25 -5.105469 "/></g></g></g><g fill="#ffffff" fill-opacity="1"><g transform="translate(64.196279, 25.499781)"><g><path d="M 6.175781 0 L 8.222656 0 L 5.089844 -8.699219 L 2.945312 -8.699219 L -0.1875 0 L 1.855469 0 L 2.394531 -1.636719 L 5.640625 -1.636719 Z M 2.898438 -3.234375 L 4.015625 -6.683594 L 5.132812 -3.234375 Z M 2.898438 -3.234375 "/></g></g></g><g fill="#ffffff" fill-opacity="1"><g transform="translate(72.740398, 25.499781)"><g><path d="M 7.003906 -8.699219 L 0.695312 -8.699219 L 0.695312 -7.003906 L 4.03125 -7.003906 L 0.332031 0 L 7.003906 0 L 7.003906 -1.695312 L 3.335938 -1.695312 Z M 7.003906 -8.699219 "/></g></g></g><g fill="#ffffff" fill-opacity="1"><g transform="translate(80.675465, 25.499781)"><g><path d="M 0.855469 0 L 3.726562 0 C 6.121094 0 8.078125 -1.941406 8.078125 -4.351562 C 8.078125 -6.757812 6.121094 -8.699219 3.726562 -8.699219 L 0.855469 -8.699219 Z M 2.769531 -1.695312 L 2.769531 -7.003906 L 3.710938 -7.003906 C 5.089844 -7.003906 6.164062 -5.859375 6.164062 -4.351562 C 6.164062 -2.84375 5.089844 -1.695312 3.710938 -1.695312 Z M 2.769531 -1.695312 "/></g></g></g><g fill="#ffffff" fill-opacity="1"><g transform="translate(89.799635, 25.499781)"><g><path d="M 6.164062 -7.019531 L 6.164062 -8.699219 L 0.929688 -8.699219 L 0.929688 0 L 6.164062 0 L 6.164062 -1.683594 L 2.84375 -1.683594 L 2.84375 -3.507812 L 5.683594 -3.507812 L 5.683594 -5.191406 L 2.84375 -5.191406 L 2.84375 -7.019531 Z M 6.164062 -7.019531 "/></g></g></g><g fill="#ffffff" fill-opacity="1"><g transform="translate(97.067648, 25.499781)"><g><path d="M 6.089844 -8.699219 L 4.015625 -2.480469 L 1.941406 -8.699219 L -0.1875 -8.699219 L 2.945312 0 L 5.089844 0 L 8.222656 -8.699219 Z M 6.089844 -8.699219 "/></g></g></g></svg>